<svg xmlns="http://www.w3.org/2000/svg" width="42" height="38" fill="none"><path fill="url(#a)" d="M30.3848 27.3661V8.4351L0 9.738v18.931c-.0001.4338.2145.8676.6439 1.1155l12.0366 6.9493a2.7665 2.7665 0 0 0 2.7668 0l14.2935-8.2523c.4293-.2479.644-.6817.644-1.1154Z"/><path fill="url(#b)" d="M.644 8.623 14.9373.3707a2.7668 2.7668 0 0 1 2.7668 0L29.7408 7.32c.8586.4957.8586 1.735 0 2.2307L15.4474 17.803a2.7672 2.7672 0 0 1-2.7669 0L.6439 10.8536c-.8585-.4957-.8585-1.7348 0-2.2306Z"/><path fill="#DEA861" d="m5.2785 5.9473 15.3519 8.8634 4.0722-2.3511L9.3508 3.5962 5.2785 5.9473Z"/><path fill="#CC8241" d="m7.7124 4.541 15.3518 8.8634-.7977.4605L6.9147 5.0016l.7977-.4606ZM20.6303 14.8106v3.3631l4.0723-2.3511v-3.3631l-4.0723 2.3511Z"/><path fill="url(#c)" d="m36.6821 15.1712.0004-.0007-3.1699-1.8249-.0002.0004c-1.2513-.663-2.8587-.5686-4.6124.4439-3.9899 2.3036-7.2244 8.4838-7.2244 13.8038 0 2.9249.9789 4.978 2.5223 5.8536l-.0011.0023 2.8964 1.6722.0029-.0062c1.2731.761 2.9432.7061 4.7736-.3507 3.99-2.3036 7.2245-8.4838 7.2245-13.8038 0-2.8549-.9322-4.8802-2.4121-5.7899Z"/><path fill="#27DEB2" d="M37.6525 27.6092c2.4011-5.6354 1.7632-11.305-1.425-12.6634-3.1881-1.3584-7.7191 2.1087-10.1203 7.7441-2.4011 5.6353-1.7631 11.3049 1.425 12.6633 3.1881 1.3584 7.7191-2.1087 10.1203-7.744Z"/><path fill="url(#d)" d="m36.3678 24.8085-1.8809-1.1026c-.3818-.2392-.8853-.2381-1.3953-.1683.1386-.1595.3149-.3017.5197-.42.6752-.3898 1.7693-.5094 2.6308-.3549l.8031-2.7141-1.9034-1.1158c-.1978-.0556-.4153-.0857-.6458-.0934v-.749l-1.9033-1.1158-1.5482.8938v2.2815c-1.49 1.1862-2.4211 2.9189-2.4211 4.6416 0 1.1644.3934 1.6468.9417 1.8051l1.3761.7945c.4028.443 1.0471.4322 1.6964.3225-.1774.2494-.4317.4727-.7433.6527-.8498.4906-2.1186.5403-2.9566.0618l-.8266 2.6967 1.9034 1.1157c.3053.1579.6538.2521 1.03.2836v.9578l1.9034 1.1158 1.5481-.8938v-2.3746c1.4667-1.1107 2.5609-2.8599 2.5609-4.7689 0-.992-.2766-1.5064-.6891-1.7519Z"/><path fill="#F7E041" d="M34.4946 31.3291v2.3746l-1.5481.8938v-2.3901c-1.0942.43-2.1535.4363-2.9333.0329l.8265-2.6965c.838.4784 2.1069.4287 2.9567-.0619.6285-.3629 1.0244-.9018 1.0244-1.476 0-1.847-4.2954 1.7504-4.2954-2.0987 0-1.7227.9313-3.4554 2.4212-4.6415v-2.2815l1.5481-.8939v2.266c.9546-.4114 1.8625-.5011 2.5492-.3078l-.8031 2.7142c-.8614-.1546-1.9555-.035-2.6307.3548-.5122.2957-.8497.7389-.8497 1.2355 0 1.8003 4.2953-1.7039 4.2953 2.2073-.0001 1.909-1.0944 3.6581-2.5611 4.7688Z"/><path fill="#E37A34" d="m31.0431 20.1487 1.9034 1.1158v-2.2814l-1.9034-1.1159v2.2815ZM30.8395 29.544l-1.9034-1.1158-.8265 2.6967 1.9034 1.1158.8265-2.6967Z"/><defs><linearGradient id="a" x1="11.6354" x2="15.8093" y1="22.7698" y2="22.7698" gradientUnits="userSpaceOnUse"><stop stop-color="#CC8241"/><stop offset="1" stop-color="#DEA861"/></linearGradient><linearGradient id="b" x1="6.7333" x2="22.3643" y1="4.203" y2="13.2276" gradientUnits="userSpaceOnUse"><stop stop-color="#DEA861"/><stop offset="1" stop-color="#EBCBA0"/></linearGradient><linearGradient id="c" x1="30.875" x2="33.8442" y1="23.4286" y2="18.2857" gradientUnits="userSpaceOnUse"><stop stop-color="#236568"/><stop offset="1" stop-color="#2F878A"/></linearGradient><linearGradient id="d" x1="33.6004" x2="34.527" y1="24.3484" y2="22.7434" gradientUnits="userSpaceOnUse"><stop stop-color="#E37A34"/><stop offset="1" stop-color="#FFC538"/></linearGradient></defs></svg>