<svg xmlns="http://www.w3.org/2000/svg" width="38" height="39" fill="none"><path fill="url(#a)" d="M31.9065 28.737V8.858L0 10.2261v19.8791c0 .4555.2253.911.6761 1.1713l12.6396 7.2975a2.9054 2.9054 0 0 0 2.9054 0l15.0093-8.6657c.4508-.2603.6762-.7158.6761-1.1714Z"/><path fill="url(#b)" d="M.6765 9.0549 15.686.3893a2.9052 2.9052 0 0 1 2.9053 0l12.6395 7.2974c.9016.5205.9016 1.8218 0 2.3424l-15.0093 8.6655a2.9052 2.9052 0 0 1-2.9053 0L.6765 11.3973c-.9015-.5206-.9015-1.8219 0-2.3424Z"/><path fill="#DEA861" d="m5.543 6.2452 16.1208 9.3073 4.2762-2.4689L9.8193 3.7764 5.5431 6.2452Z"/><path fill="#CC8241" d="m8.0986 4.768 16.1207 9.3074-.8376.4836L7.261 5.2517l.8376-.4836ZM21.6635 15.5524v3.5315l4.2762-2.4689v-3.5315l-4.2762 2.4689Z"/><path fill="url(#c)" d="M37.5998 15.0849a1.0079 1.0079 0 0 0-.223-.1267l-3.0752-1.7468c-.4968-.3756-1.2119-.2151-1.5007.3367L27.067 24.5894l-.0611-.0461a1.7237 1.7237 0 0 0-.5885-.2877l-.0016-.003-2.708-1.5828a1.73 1.73 0 0 0-.4715-.2518l-.0058-.0034.0006.0014c-.7857-.2737-1.695.0494-2.105.8328a1.7337 1.7337 0 0 0 .4905 2.1871l5.2176 3.9444 3.2981 1.8735 7.7526-14.8975a1.0075 1.0075 0 0 0-.2851-1.2714Z"/><path fill="url(#d)" d="M27.0061 24.5435a1.7267 1.7267 0 0 0-.5885-.2878l-.0016-.0029-2.708-1.5828a1.73 1.73 0 0 0-.4715-.2518l-.0058-.0034.0007.0014c-.7857-.2737-1.695.0494-2.105.8328a1.7337 1.7337 0 0 0 .4905 2.1871l5.2175 3.9444 3.2981 1.8735-3.1264-6.7105Z"/><path fill="#06DAAE" d="m30.1324 31.2537-5.2176-3.9443a1.7337 1.7337 0 0 1-.4905-2.187c.4968-.9492 1.7271-1.2252 2.5817-.5791l3.1264 2.3636 5.9667-11.4853c.2888-.5518 1.0038-.7122 1.5007-.3367a1.008 1.008 0 0 1 .2852 1.2714l-7.7526 14.8974Z"/><defs><linearGradient id="a" x1="12.2182" x2="16.6011" y1="23.9106" y2="23.9106" gradientUnits="userSpaceOnUse"><stop stop-color="#CC8241"/><stop offset="1" stop-color="#DEA861"/></linearGradient><linearGradient id="b" x1="7.0708" x2="23.4848" y1="4.4135" y2="13.8901" gradientUnits="userSpaceOnUse"><stop stop-color="#DEA861"/><stop offset="1" stop-color="#EBCBA0"/></linearGradient><linearGradient id="c" x1="32.8187" x2="33.8161" y1="14.7974" y2="13.0698" gradientUnits="userSpaceOnUse"><stop stop-color="#236568"/><stop offset="1" stop-color="#2F878A"/></linearGradient><linearGradient id="d" x1="25.928" x2="26.7299" y1="26.733" y2="25.3439" gradientUnits="userSpaceOnUse"><stop stop-color="#236568"/><stop offset="1" stop-color="#2F878A"/></linearGradient></defs></svg>