<svg xmlns="http://www.w3.org/2000/svg" width="53" height="39" fill="none"><path fill="url(#a)" d="M48.833 11.9605c-.3837-.7163-1.4549-1.3212-2.3927-1.351-.5165-.0164-.8837.1457-1.0463.4137l-.0012-.0007-.9082 1.4635.0023.0012c-.1486.2213-.1528.5195.0262.8538.3836.7163 1.4549 1.3211 2.3927 1.351.542.0172.9193-.1621 1.0684-.4543l.8609-1.3871-.0005-.0003c.1735-.2243.1872-.5375-.0016-.8898Z"/><path fill="url(#b)" d="M39.9305 28.3633V8.7427L8.439 10.093v19.6206c-.0001.4495.2224.8991.6673 1.1561l12.4752 7.2025a2.8672 2.8672 0 0 0 2.8675 0l14.8141-8.5529c.445-.2569.6674-.7065.6674-1.1561Z"/><path fill="url(#c)" d="M9.1064 8.937 23.9206.3843a2.8674 2.8674 0 0 1 2.8675 0l12.4751 7.2025c.8899.5138.8899 1.7982 0 2.3119l-14.8141 8.5529a2.8678 2.8678 0 0 1-2.8676 0L9.1065 11.249c-.89-.5138-.89-1.7982 0-2.312Z"/><path fill="#DEA861" d="m13.9097 6.1639 15.911 9.1862 4.2207-2.4368-15.9111-9.1862-4.2206 2.4368Z"/><path fill="#CC8241" d="m16.4324 4.706 15.9111 9.1864-.8268.4772-15.911-9.1862.8267-.4773ZM29.8208 15.3503v3.4856l4.2207-2.4368v-3.4855l-4.2207 2.4367Z"/><path fill="url(#d)" d="m.9688 9.3019 9.6767 5.5868a1.598 1.598 0 0 1 .7991 1.3839c0 .4972-.5383.808-.9689.5594L.7991 11.2452A1.598 1.598 0 0 1 0 9.8612c0-.4971.5382-.808.9688-.5593Z"/><path fill="url(#e)" d="m4.5064 15.463 9.6766 5.5868c.4945.2855.7991.8131.7991 1.384 0 .4972-.5383.8079-.9689.5594l-9.6767-5.5868a1.5982 1.5982 0 0 1-.799-1.384c0-.4973.5383-.808.969-.5594Z"/><path fill="url(#f)" d="m47.4845 13.6423.0004-.0008-3.2854-1.8914-.0002.0005c-1.2968-.6872-2.9628-.5893-4.7803.46-4.1353 2.3875-7.4876 8.7927-7.4876 14.3066 0 3.0313 1.0146 5.1593 2.6142 6.0667l-.0012.0025 3.0018 1.733.0032-.0064c1.3194.7887 3.0504.7318 4.9473-.3635 4.1354-2.3875 7.4877-8.7928 7.4877-14.3066 0-2.9588-.9662-5.058-2.4999-6.0006Z"/><path fill="#A996EB" d="M48.494 26.5358c2.4886-5.8406 1.8274-11.7167-1.4768-13.1246-3.3043-1.4079-8.0004 2.1855-10.489 8.0261-2.4886 5.8406-1.8273 11.7167 1.4769 13.1246 3.3043 1.4079 8.0003-2.1855 10.4889-8.0261Z"/><path fill="#F2EFFA" d="M46.8298 25.827c1.7963-4.2159 1.319-8.4574-1.0661-9.4737-2.3851-1.0162-5.7748 1.5776-7.5712 5.7934-1.7963 4.2159-1.319 8.4574 1.0661 9.4737 2.3851 1.0162 5.7748-1.5776 7.5712-5.7934Z"/><path fill="#FF4757" d="M47.1164 17.5565c-.9485-1.5292-2.6624-1.9265-4.6195-.7967v7.2064l4.6195-6.4097Z"/><path fill="#2D5CD7" d="M43.5433 23.3621c0-.7706-.4686-1.1249-1.0466-.7912-.5781.3337-1.0466 1.229-1.0466 1.9997 0 .7708.4686 1.125 1.0466.7912.578-.3337 1.0466-1.2289 1.0466-1.9997Z"/><path fill="#2D5CD7" d="M42.0891 25.2227v-6.6118a.4078.4078 0 0 1 .8156 0v4.0996l2.207-3.0414a.4078.4078 0 0 1 .6601.4789l-3.6827 5.0747ZM42.7403 12.0961v-1.4877l-2.8734.1935v1.5541l.0019-.0002c-.007.1968.1065.3857.3491.5258.52.3002 1.4282.2625 2.0286-.084.3471-.2004.5141-.46.4938-.7015Z"/><path fill="url(#g)" d="M43.5389 9.6925v-1.877l-4.4713.3011v1.9804l.003-.0002c-.011.3062.1658.6003.5432.8182.8091.4671 2.2224.4085 3.1567-.1309.54-.3118.7998-.7159.7684-1.0916Z"/><path fill="#FF7A85" d="M41.4744 9.1908c1.2335-.15 2.1644-.8374 2.0792-1.5352-.0851-.6978-1.1541-1.1419-2.3876-.9918-1.2335.15-2.1643.8374-2.0792 1.5353.0852.6978 1.1541 1.1418 2.3876.9917Z"/><path fill="url(#h)" d="m37.2621 15.4627-1.329-.9481-2.0452 3.318 1.4022 1.0002.0014-.0022c.2113.1624.5087.1859.8537.0287.7395-.3369 1.4118-1.3672 1.5017-2.3011.052-.5399-.1029-.928-.3848-1.0955Z"/><path fill="#D6D07B" d="M35.8459 16.694c.5164-.9485.5-1.9542-.0366-2.2463-.5366-.2922-1.3902.2399-1.9065 1.1884-.5164.9485-.5 1.9542.0366 2.2464.5365.2921 1.3901-.24 1.9065-1.1885Z"/><defs><linearGradient id="a" x1="44.3772" x2="48.9697" y1="12.6507" y2="12.6507" gradientUnits="userSpaceOnUse"><stop stop-color="#236568"/><stop offset="1" stop-color="#2F878A"/></linearGradient><linearGradient id="b" x1="20.4982" x2="24.8242" y1="23.5996" y2="23.5996" gradientUnits="userSpaceOnUse"><stop stop-color="#CC8241"/><stop offset="1" stop-color="#DEA861"/></linearGradient><linearGradient id="c" x1="15.4176" x2="31.6181" y1="4.356" y2="13.7093" gradientUnits="userSpaceOnUse"><stop stop-color="#DEA861"/><stop offset="1" stop-color="#EBCBA0"/></linearGradient><linearGradient id="d" x1="12.3112" x2=".8149" y1="17.1217" y2="10.047" gradientUnits="userSpaceOnUse"><stop stop-color="#43386B"/><stop offset="1" stop-color="#7662BD"/></linearGradient><linearGradient id="e" x1="15.8488" x2="4.3525" y1="23.2828" y2="16.2081" gradientUnits="userSpaceOnUse"><stop stop-color="#43386B"/><stop offset="1" stop-color="#7662BD"/></linearGradient><linearGradient id="f" x1="41.4658" x2="44.5432" y1="22.2002" y2="16.8702" gradientUnits="userSpaceOnUse"><stop stop-color="#43386B"/><stop offset="1" stop-color="#7662BD"/></linearGradient><linearGradient id="g" x1="39.0676" x2="44.1088" y1="9.5229" y2="9.5229" gradientUnits="userSpaceOnUse"><stop stop-color="#AB2C37"/><stop offset="1" stop-color="#FF7A85"/></linearGradient><linearGradient id="h" x1="34.8909" x2="37.4383" y1="18.5541" y2="14.9852" gradientUnits="userSpaceOnUse"><stop stop-color="#D6D07B"/><stop offset="1" stop-color="#827C34"/></linearGradient></defs></svg>