<svg xmlns="http://www.w3.org/2000/svg" width="34" height="41" fill="none"><path fill="#43386B" d="M29.7593 37.6803c-.46 0-.9076-.2388-1.1541-.6658-.3676-.6368-.1494-1.451.4873-1.8186l2.5427-1.468c.6367-.3676 1.4509-.1496 1.8186.4873.3677.6367.1494 1.4509-.4872 1.8185l-2.5428 1.4681a1.3269 1.3269 0 0 1-.6645.1785Z"/><path fill="url(#a)" d="M17.5133 31.4645c0-4.5562-2.7701-9.8491-6.1874-11.8221-1.7179-.9917-3.1707-.9199-4.393-.0954l-2.649 1.5293 8.3691 16.9663 2.8724-1.6678c1.2223-.8013 1.9879-2.5154 1.9879-4.9103Z"/><path fill="#A996EB" d="M12.391 38.1675c2.7304-1.1634 3.2768-6.019 1.2204-10.8454-2.0565-4.8263-5.937-7.7957-8.6675-6.6323-2.7304 1.1635-3.2768 6.0191-1.2204 10.8454 2.0564 4.8264 5.937 7.7957 8.6675 6.6323Z"/><path fill="url(#b)" d="M13.1969 33.3413c0 4.0794-2.4802 5.9545-5.5398 4.188-3.0595-1.7664-5.5398-6.5053-5.5398-10.5847s2.4803-5.9544 5.5398-4.188c3.0596 1.7664 5.5398 6.5054 5.5398 10.5847Z"/><path fill="url(#c)" d="M9.4822 32.697c0 2.4272-1.4757 3.5429-3.2962 2.4919-1.8205-1.0511-3.2962-3.8708-3.2962-6.298 0-2.4273 1.4757-3.5429 3.2962-2.492 1.8205 1.0511 3.2962 3.8708 3.2962 6.2981Z"/><path fill="url(#d)" d="M33.9999 21.2676c0 4.0794-2.4803 5.9544-5.5398 4.188-3.0596-1.7664-5.5398-6.5054-5.5398-10.5848 0-4.0793 2.4802-5.9544 5.5398-4.1879 3.0595 1.7663 5.5398 6.5053 5.5398 10.5847Z"/><path fill="url(#e)" d="M33.7523 22.0759c0-4.5563-2.7702-9.8492-6.1874-11.8221-1.7179-.9918-3.1708-.92-4.3932-.0955l-2.6489 1.5294 8.3691 16.9662 2.578-1.4969a3.117 3.117 0 0 0 .2944-.1708c1.2224-.8014 1.988-2.5155 1.988-4.9103Z"/><path fill="#A996EB" d="M28.6234 28.773c2.7304-1.1634 3.2768-6.0191 1.2204-10.8454s-5.937-7.7957-8.6674-6.6323c-2.7305 1.1634-3.2769 6.0191-1.2205 10.8454 2.0565 4.8263 5.937 7.7957 8.6675 6.6323Z"/><path fill="url(#f)" d="M28.7449 22.2724c0 2.8348-1.7235 4.1377-3.8496 2.9103-2.1261-1.2275-3.8496-4.5207-3.8496-7.3555 0-2.8347 1.7235-4.1376 3.8496-2.9102 2.1261 1.2275 3.8496 4.5206 3.8496 7.3554Z"/><path fill="url(#g)" d="m26.5291 3.8228.0673.0096-.5457-.315h-.0001l-.0002-.0002S20.9606.6072 20.8383.591c-1.8625-.8676-3.9915-.7802-5.7996.2637C9.9229 3.8083 6.745 9.3127 6.745 15.2198v4.5205c.7408.0095 1.5553.2485 2.4105.7422.8106.468 1.5839 1.1245 2.2933 1.9119v.0163l1.2425-.7174v-3.811c0-5.4645 2.9399-10.5566 7.6724-13.289.7206-.416 1.5048-.6423 2.2948-.6803.3882.722.5994 1.5418.5994 2.4046v3.8512c.7319.0161 1.5347.2548 2.3769.7411.8234.4754 1.6085 1.145 2.327 1.949v.0179l1.2425-.7174V8.9801c.0002-2.0895-.9902-3.9785-2.6752-5.1573Z"/><path fill="#A996EB" d="M12.6912 21.6932v-3.8109c0-5.4646 2.9399-10.5566 7.6724-13.289 1.5859-.9156 3.4794-.9156 5.0654 0 1.5859.9156 2.5326 2.5556 2.5326 4.3868v3.8967l1.2425-.7173V8.9801c0-2.2805-1.1791-4.3226-3.1539-5.4628-1.975-1.1403-4.333-1.1402-6.3079 0-5.1158 2.9536-8.2937 8.4579-8.2937 14.365v4.5283l1.2426-.7174ZM22.6668 40.6753a3.1262 3.1262 0 0 1-1.5631-.4175l-5.9314-3.4245a.6213.6213 0 0 1 .6213-1.0761l5.9314 3.4245a1.889 1.889 0 0 0 1.8837 0l5.2846-3.051a.6213.6213 0 0 1 .6213 1.076L24.23 40.2578a3.126 3.126 0 0 1-1.5632.4175Z"/><defs><linearGradient id="a" x1="13.4828" x2="9.7935" y1="30.0971" y2="23.707" gradientUnits="userSpaceOnUse"><stop stop-color="#43386B"/><stop offset="1" stop-color="#7662BD"/></linearGradient><linearGradient id="b" x1="7.6571" x2="7.6571" y1="37.2237" y2="24.6204" gradientUnits="userSpaceOnUse"><stop stop-color="#D5C9F1"/><stop offset="1" stop-color="#F2EFFA"/></linearGradient><linearGradient id="c" x1="6.186" x2="6.186" y1="35.0642" y2="24.5905" gradientUnits="userSpaceOnUse"><stop stop-color="#A996EB"/><stop offset="1" stop-color="#D7D1EB"/></linearGradient><linearGradient id="d" x1="28.4601" x2="28.4601" y1="25.15" y2="12.5466" gradientUnits="userSpaceOnUse"><stop stop-color="#D5C9F1"/><stop offset="1" stop-color="#F2EFFA"/></linearGradient><linearGradient id="e" x1="29.7217" x2="26.0324" y1="20.7085" y2="14.3184" gradientUnits="userSpaceOnUse"><stop stop-color="#43386B"/><stop offset="1" stop-color="#7662BD"/></linearGradient><linearGradient id="f" x1="21.0457" x2="28.7449" y1="20.0498" y2="20.0498" gradientUnits="userSpaceOnUse"><stop stop-color="#43386B"/><stop offset="1" stop-color="#7662BD"/></linearGradient><linearGradient id="g" x1="16.313" x2="19.659" y1="14.3527" y2="8.5573" gradientUnits="userSpaceOnUse"><stop stop-color="#43386B"/><stop offset="1" stop-color="#7662BD"/></linearGradient></defs></svg>